<?xml version="1.0" encoding="UTF-8" standalone="no"?>
<svg
   xmlns:osb="http://www.openswatchbook.org/uri/2009/osb"
   xmlns:dc="http://purl.org/dc/elements/1.1/"
   xmlns:cc="http://creativecommons.org/ns#"
   xmlns:rdf="http://www.w3.org/1999/02/22-rdf-syntax-ns#"
   xmlns:svg="http://www.w3.org/2000/svg"
   xmlns="http://www.w3.org/2000/svg"
   xmlns:sodipodi="http://sodipodi.sourceforge.net/DTD/sodipodi-0.dtd"
   xmlns:inkscape="http://www.inkscape.org/namespaces/inkscape"
   sodipodi:docname="Degnome.svg"
   inkscape:version="1.0 (4035a4fb49, 2020-05-01)"
   id="svg8"
   version="1.1"
   viewBox="0 0 210 297"
   height="297mm"
   width="210mm">
  <defs
     id="defs2">
    <linearGradient
       osb:paint="solid"
       id="linearGradient1983">
      <stop
         id="stop1981"
         offset="0"
         style="stop-color:#000000;stop-opacity:1;" />
    </linearGradient>
  </defs>
  <sodipodi:namedview
     inkscape:window-maximized="0"
     inkscape:window-y="0"
     inkscape:window-x="160"
     inkscape:window-height="1030"
     inkscape:window-width="1566"
     showgrid="false"
     inkscape:document-rotation="0"
     inkscape:current-layer="layer1"
     inkscape:document-units="mm"
     inkscape:cy="378.59864"
     inkscape:cx="562.6271"
     inkscape:zoom="0.5994337"
     inkscape:pageshadow="2"
     inkscape:pageopacity="0.0"
     borderopacity="1.0"
     bordercolor="#666666"
     pagecolor="#ffffff"
     id="base" />
  <metadata
     id="metadata5">
    <rdf:RDF>
      <cc:Work
         rdf:about="">
        <dc:format>image/svg+xml</dc:format>
        <dc:type
           rdf:resource="http://purl.org/dc/dcmitype/StillImage" />
        <dc:title />
      </cc:Work>
    </rdf:RDF>
  </metadata>
  <g
     id="layer1"
     inkscape:groupmode="layer"
     inkscape:label="Layer 1">
    <path
       sodipodi:nodetypes="ccscccscsc"
       d="m 50,25 c 0,6.53321 7.480762,14.118214 16.773015,17.006747 L 103.22698,53.338603 C 112.51924,56.227139 120,63.812146 120,70.345348 m 0,0 V 90 c 0,-6.533209 -7.48076,-14.118216 -16.77302,-17.006739 L 66.773015,61.661398 C 57.480762,58.772862 50,51.187857 50,44.654651 v -19.65465"
       style="fill:#ff0000;fill-opacity:1;stroke:none;stroke-width:2.41618;stroke-miterlimit:4;stroke-dasharray:none;stroke-opacity:1"
       id="path3950" />
    <path
       id="path3950-1"
       style="fill:#0000ff;fill-opacity:1;stroke:none;stroke-width:2.41618;stroke-miterlimit:4;stroke-dasharray:none;stroke-opacity:1"
       d="m 120,25 c 0,6.533207 -7.48076,14.118213 -16.77302,17.006746 L 66.773016,53.338599 C 57.480761,56.227134 50,63.81214 50,70.345349 m 0,0 V 90 C 50,83.466791 57.480761,75.881779 66.773016,72.993254 L 103.22698,61.661394 C 112.51924,58.772859 120,51.187853 120,44.654648 V 25"
       sodipodi:nodetypes="ccscccscsc" />
    <path
       sodipodi:nodetypes="ccscccscsc"
       d="m 50,80 c 0,6.533207 7.48076,14.118211 16.77302,17.006751 L 103.22698,108.3386 C 112.51924,111.22713 120,118.81214 120,125.34535 m 0,0 V 145 c 0,-6.53321 -7.48076,-14.11822 -16.77302,-17.00675 L 66.77302,116.66139 C 57.48076,113.77286 50,106.18785 50,99.654651 V 80"
       style="fill:#0000ff;fill-opacity:1;stroke:none;stroke-width:2.41618;stroke-miterlimit:4;stroke-dasharray:none;stroke-opacity:1"
       id="path3950-1-9" />
    <path
       id="path3950-6"
       style="fill:#ff0000;fill-opacity:1;stroke:none;stroke-width:2.41618;stroke-miterlimit:4;stroke-dasharray:none;stroke-opacity:1"
       d="m 120,80 c 0,6.53321 -7.48076,14.118211 -16.77301,17.006751 L 66.77302,108.3386 C 57.48076,111.22714 50,118.81215 50,125.34535 m 0,0 V 145 c 0,-6.53321 7.48076,-14.11822 16.77302,-17.00674 L 103.22699,116.6614 C 112.51924,113.77286 120,106.18786 120,99.654651 v -19.65465"
       sodipodi:nodetypes="ccscccscsc" />
  </g>
</svg>
